#!OML:ASF F:\VICON\USERDATA\INSTALL\rory3\rory3.ASF
:FULLY-SPECIFIED
:DEGREES

198
root 4.62278 17.7473 15.8224 -4.00877 -2.24434 2.17646
lowerback 10.7633 -0.357753 -3.47698
upperback 0.586913 -0.856699 0.763854
thorax -5.36455 -0.328925 2.89189
lowerneck -17.2825 -2.42697 -2.17078
upperneck 19.0152 -2.81532 0.185771
head 8.83784 -1.46277 0.0668887
rclavicle 2.03754e-014 -9.14409e-015
rhumerus -34.2183 -19.9291 -77.4546
rradius 27.6402
rwrist 2.87487
rhand -17.907 20.4202
rfingers 7.12502
rthumb 8.36005 -9.39434
lclavicle 2.03754e-014 -9.14409e-015
lhumerus -29.3285 -4.49863 80.7479
lradius 31.1592
lwrist 6.95276
lhand -26.0404 23.9437
lfingers 7.12502
lthumb 0.506745 53.9229
rfemur -31.2728 2.21431 20.1376
rtibia 42.9916
rfoot -4.46584 -13.5092
rtoes 0.934534
lfemur 5.2226 -3.99198 -27.3906
ltibia 23.1441
lfoot -18.6967 1.89164
ltoes 5.00289
199
root 4.61393 17.745 16.0065 -3.78214 -2.26665 2.38074
lowerback 10.5418 -0.362789 -3.66367
upperback 0.535184 -0.880167 0.733641
thorax -5.29098 -0.337188 2.96581
lowerneck -17.4177 -2.39935 -2.15539
upperneck 19.0858 -2.76768 0.139054
head 8.88494 -1.44412 0.0524216
rclavicle -1.6524e-015 3.97569e-015
rhumerus -34.5049 -19.7901 -77.3969
rradius 27.7726
rwrist 2.67366
rhand -18.0737 20.1481
rfingers 7.12502
rthumb 8.19923 -9.67278
lclavicle -1.6524e-015 3.97569e-015
lhumerus -28.8615 -4.87978 80.714
lradius 31.0804
lwrist 7.34203
lhand -26.105 23.7517
lfingers 7.12502
lthumb 0.444289 53.7309
rfemur -31.3145 2.5108 19.7046
rtibia 39.8049
rfoot -3.16215 -13.6105
rtoes 2.92918
lfemur 6.07714 -3.92426 -27.6424
ltibia 22.2677
lfoot -18.7431 1.98762
ltoes 4.36281
200
root 4.60041 17.7385 16.1772 -3.53439 -2.39976 1.99336
lowerback 10.523 -0.349211 -3.26522
upperback 0.446926 -0.809919 0.823924
thorax -5.38258 -0.308016 2.82573
lowerneck -17.0753 -2.41533 -2.06518
upperneck 18.5531 -2.80812 0.0867539
head 8.63944 -1.46226 0.0226843
rclavicle -5.71506e-016 0
rhumerus -34.7449 -20.1962 -77.2085
rradius 27.6141
rwrist 2.93313
rhand -18.2125 20.2966
rfingers 7.12502
rthumb 8.06529 -9.52948
lclavicle -5.71506e-016 0
lhumerus -28.4673 -5.07072 80.5919
lradius 31.2059
lwrist 7.6595
lhand -26.1335 23.5267
lfingers 7.12502
lthumb 0.416766 53.506
rfemur -31.3011 3.16774 19.8789
rtibia 36.4562
rfoot -1.77556 -13.8199
rtoes 3.49264
lfemur 6.94958 -3.76437 -27.1979
ltibia 21.4471
lfoot -18.9984 2.01992
ltoes 2.73263
201
root 4.58738 17.7345 16.3462 -3.21684 -2.51106 1.70224
lowerback 10.5014 -0.366043 -3.02635
upperback 0.336835 -0.797007 0.950363
thorax -5.48855 -0.302506 2.82252
lowerneck -16.714 -2.4462 -2.11641
upperneck 17.9701 -2.84035 0.0734018
head 8.3783 -1.48235 0.0312489
rclavicle 5.34234e-016 1.59028e-015
rhumerus -34.8526 -20.7074 -76.8936
rradius 27.1731
rwrist 3.44267
rhand -18.2694 20.9867
rfingers 7.12502
rthumb 8.01028 -8.84155
lclavicle 5.34234e-016 1.59028e-015
lhumerus -28.2704 -5.10541 80.4864
lradius 31.6315
lwrist 7.99205
lhand -25.9549 25.0596
lfingers 7.12502
lthumb 0.58929 55.0385
rfemur -31.2724 3.84831 19.943
rtibia 33.2184
rfoot -0.699014 -13.8814
rtoes 3.0392
lfemur 7.82008 -3.45222 -26.8185
ltibia 20.5665
lfoot -19.3094 2.11396
ltoes 0.259034
202
root 4.57417 17.7186 16.5292 -2.91454 -2.445 1.8675
lowerback 10.2712 -0.445667 -3.27345
upperback 0.27579 -0.924984 0.965792
thorax -5.41061 -0.35976 2.99379
lowerneck -16.4001 -2.46238 -2.21253
upperneck 17.5219 -2.84955 0.0997116
head 8.17393 -1.49039 0.0617415
rclavicle 5.8393e-015 -4.77083e-015
rhumerus -34.9363 -20.7123 -76.8123
rradius 27.0629
rwrist 3.61475
rhand -18.1741 21.0519
rfingers 7.12502
rthumb 8.10233 -8.77276
lclavicle 5.8393e-015 -4.77083e-015
lhumerus -28.049 -4.72225 80.2822
lradius 32.0644
lwrist 7.59494
lhand -26.4601 26.9587
lfingers 7.12502
lthumb 0.101412 56.9384
rfemur -31.2783 4.47407 19.3913
rtibia 30.0673
rfoot -0.0508207 -13.9898
rtoes 2.36646
lfemur 8.68052 -3.22377 -26.9407
ltibia 19.6315
lfoot -19.4085 1.9161
ltoes 0.213489
203
root 4.56563 17.7085 16.7133 -2.7821 -2.1975 2.25295
lowerback 10.2273 -0.548698 -3.61392
upperback 0.282206 -1.10631 0.861337
thorax -5.36158 -0.44288 3.10174
lowerneck -16.4152 -2.43209 -2.19846
upperneck 17.3867 -2.81062 0.101169
head 8.13061 -1.47044 0.0652907
rclavicle -3.95085e-015 7.95139e-015
rhumerus -34.9444 -20.9837 -76.6776
rradius 26.9564
rwrist 4.04662
rhand -17.9178 20.6033
rfingers 7.12502
rthumb 8.34967 -9.21162
lclavicle -3.95085e-015 7.95139e-015
lhumerus -27.5667 -4.5767 80.0904
lradius 32.1026
lwrist 7.41213
lhand -27.2378 27.4512
lfingers 7.12502
lthumb -0.649769 57.4299
rfemur -31.0315 4.89439 18.553
rtibia 27.2278
rfoot -0.901002 -14.2178
rtoes 2.58018
lfemur 9.78143 -3.09162 -27.3217
ltibia 18.4352
lfoot -19.2196 1.43158
ltoes 1.25869
204
root 4.55568 17.6962 16.9026 -2.74518 -1.94848 2.78636
lowerback 10.2069 -0.625378 -4.11437
upperback 0.390843 -1.27143 0.729365
thorax -5.21541 -0.518683 3.26739
lowerneck -17.0479 -2.37394 -2.06986
upperneck 17.6002 -2.71889 -0.0374999
head 8.30915 -1.43149 -0.000253328
rclavicle -1.2424e-015 -5.1684e-015
rhumerus -34.845 -21.5243 -76.4213
rradius 26.7348
rwrist 4.89023
rhand -17.3298 20.9616
rfingers 7.12502
rthumb 8.91712 -8.83002
lclavicle -1.2424e-015 -5.1684e-015
lhumerus -26.9272 -4.3879 79.957
lradius 32.0313
lwrist 7.58967
lhand -27.3092 27.0161
lfingers 7.12502
lthumb -0.718702 56.9946
rfemur -30.6864 5.24975 17.5353
rtibia 24.448
rfoot -2.39114 -14.3319
rtoes 2.73427
lfemur 11.0215 -2.95488 -27.8873
ltibia 17.2568
lfoot -19.0407 1.11436
ltoes 0.703644
205
root 4.53758 17.6852 17.099 -2.66568 -1.79607 3.10202
lowerback 10.085 -0.663714 -4.46837
upperback 0.415726 -1.36081 0.66416
thorax -5.10694 -0.558315 3.40805
lowerneck -17.4616 -2.33103 -2.12101
upperneck 17.8484 -2.66923 0.117723
head 8.46882 -1.3946 0.0597008
rclavicle -1.26477e-014 -1.07344e-014
rhumerus -34.9445 -21.7882 -76.2293
rradius 26.4839
rwrist 5.23997
rhand -17.3886 21.5148
rfingers 7.12502
rthumb 8.86039 -8.27917
lclavicle -1.26477e-014 -1.07344e-014
lhumerus -26.5938 -4.31945 79.8838
lradius 32.1163
lwrist 7.77596
lhand -27.2079 26.9502
lfingers 7.12502
lthumb -0.620901 56.929
rfemur -30.3781 6.11027 16.6226
rtibia 21.8234
rfoot -4.48074 -14.6678
rtoes 3.16089
lfemur 12.1558 -2.84602 -28.1949
ltibia 16.2086
lfoot -18.8006 0.819303
ltoes 0.640091
206
root 4.51783 17.668 17.2837 -2.41499 -1.64573 2.78889
lowerback 10.0713 -0.749917 -4.1852
upperback 0.25604 -1.43876 0.786098
thorax -5.26369 -0.59524 3.38935
lowerneck -17.4475 -2.31601 -2.30759
upperneck 17.9598 -2.64263 0.319297
head 8.50953 -1.37381 0.16085
rclavicle -4.72114e-016 7.95139e-016
rhumerus -35.2843 -21.7383 -76.1127
rradius 26.2902
rwrist 4.67188
rhand -17.929 22.339
rfingers 7.12502
rthumb 8.33885 -7.47638
lclavicle -4.72114e-016 7.95139e-016
lhumerus -26.5659 -4.19504 79.8135
lradius 32.4036
lwrist 7.74544
lhand -26.782 27.5226
lfingers 7.12502
lthumb -0.209564 57.5022
rfemur -30.1838 7.38159 16.2473
rtibia 19.2322
rfoot -6.96434 -15.1506
rtoes 2.95304
lfemur 12.8995 -2.93733 -27.7857
ltibia 15.504
lfoot -18.5554 0.774018
ltoes 0.55526
207
root 4.49872 17.6522 17.4577 -2.11454 -1.38016 2.62847
lowerback 10.0323 -0.868653 -4.07895
upperback 0.189625 -1.57866 0.881362
thorax -5.29933 -0.663668 3.44907
lowerneck -17.5954 -2.35563 -2.35039
upperneck 17.8966 -2.67786 0.304732
head 8.51532 -1.39423 0.15727
rclavicle -1.09332e-015 -1.47101e-014
rhumerus -35.4185 -21.654 -76.0801
rradius 26.1715
rwrist 4.22428
rhand -18.1142 23.4639
rfingers 7.12502
rthumb 8.1601 -6.35857
lclavicle -1.09332e-015 -1.47101e-014
lhumerus -26.3402 -4.16198 79.7406
lradius 32.7769
lwrist 7.88088
lhand -26.631 27.8174
lfingers 7.12502
lthumb -0.063669 57.7971
rfemur -30.0015 8.58279 15.6531
rtibia 16.785
rfoot -7.62111 -15.5353
rtoes 1.08641
lfemur 13.3588 -2.97986 -27.4806
ltibia 15.1973
lfoot -18.4183 0.742706
ltoes -0.560062
208
root 4.47937 17.6379 17.6403 -1.94885 -1.23136 2.70247
lowerback 9.95382 -0.929841 -4.22583
upperback 0.194238 -1.67245 0.900678
thorax -5.23751 -0.707723 3.56295
lowerneck -17.6932 -2.37368 -2.29949
upperneck 17.8346 -2.68882 0.190469
head 8.50937 -1.40759 0.108339
rclavicle -8.44835e-015 -8.34896e-015
rhumerus -35.5403 -21.7867 -75.9642
rradius 26.1206
rwrist 4.2141
rhand -17.8224 24.1458
rfingers 7.12502
rthumb 8.44177 -5.66551
lclavicle -8.44835e-015 -8.34896e-015
lhumerus -26.0393 -4.01878 79.6742
lradius 32.9107
lwrist 7.94286
lhand -26.9232 26.9062
lfingers 7.12502
lthumb -0.345894 56.8857
rfemur -29.682 9.47556 14.9974
rtibia 14.7582
rfoot -8.51785 -15.5544
rtoes 0.308488
lfemur 13.8416 -2.97534 -27.4762
ltibia 15.166
lfoot -18.5026 0.448045
ltoes -1.86037
209
root 4.45939 17.6164 17.8273 -1.85883 -1.15359 2.79849
lowerback 9.96266 -0.932394 -4.37491
upperback 0.180134 -1.69372 0.89865
thorax -5.25139 -0.713831 3.64857
lowerneck -17.6722 -2.36132 -2.27593
upperneck 17.6586 -2.67641 0.184238
head 8.44539 -1.40033 0.105302
rclavicle 3.2054e-015 1.98785e-015
rhumerus -35.7256 -21.7108 -75.9546
rradius 26.2747
rwrist 4.108
rhand -18.0382 23.3431
rfingers 7.12502
rthumb 8.23343 -6.47642
lclavicle 3.2054e-015 1.98785e-015
lhumerus -25.6379 -3.95899 79.6592
lradius 32.7811
lwrist 7.79458
lhand -26.9171 27.3235
lfingers 7.12502
lthumb -0.340034 57.303
rfemur -29.4791 9.90836 14.5995
rtibia 13.5505
rfoot -9.35994 -15.4455
rtoes -3.38281
lfemur 14.3148 -2.97203 -27.5011
ltibia 15.1624
lfoot -18.4325 0.0554118
ltoes -2.69194
210
root 4.43878 17.5983 18.0251 -1.91386 -1.04514 2.79907
lowerback 10.0644 -0.958754 -4.42279
upperback 0.199113 -1.73646 0.937006
thorax -5.28205 -0.732662 3.72471
lowerneck -17.604 -2.35056 -2.31158
upperneck 17.4253 -2.64989 0.171001
head 8.35449 -1.39113 0.11221
rclavicle -2.045e-014 8.34896e-015
rhumerus -35.9552 -21.7454 -75.8149
rradius 26.2869
rwrist 4.26542
rhand -18.3477 22.4753
rfingers 7.12502
rthumb 7.9348 -7.35576
lclavicle -2.045e-014 8.34896e-015
lhumerus -25.2757 -3.93879 79.7013
lradius 32.5357
lwrist 7.99525
lhand -26.6142 27.5284
lfingers 7.12502
lthumb -0.0474317 57.5081
rfemur -29.2624 9.60622 14.7081
rtibia 13.2715
rfoot -9.77097 -14.913
rtoes -2.15966
lfemur 14.907 -3.09474 -27.4513
ltibia 15.1765
lfoot -18.142 -0.556182
ltoes -2.20347
211
root 4.42233 17.5852 18.2217 -2.05983 -0.904052 2.56306
lowerback 10.3498 -1.07096 -4.19462
upperback 0.145371 -1.86535 1.06272
thorax -5.48953 -0.793579 3.75683
lowerneck -17.0766 -2.33773 -2.37538
upperneck 16.9338 -2.6124 0.090956
head 8.09583 -1.38584 0.109498
rclavicle 3.96078e-014 3.97569e-015
rhumerus -36.1998 -22.1183 -75.3754
rradius 25.8952
rwrist 4.92456
rhand -18.3872 22.5456
rfingers 7.12502
rthumb 7.89665 -7.28686
lclavicle 3.96078e-014 3.97569e-015
lhumerus -25.4105 -3.70964 79.7568
lradius 32.6852
lwrist 8.22556
lhand -26.2467 27.3511
lfingers 7.12502
lthumb 0.307505 57.3306
rfemur -29.219 8.81898 15.3237
rtibia 14.0337
rfoot -9.93141 -13.9126
rtoes -2.77904
lfemur 15.7216 -3.45422 -27.2092
ltibia 15.1551
lfoot -17.8651 -1.03943
ltoes -2.91391
